<svg width="47" height="24" viewBox="0 0 47 24" fill="none" xmlns="http://www.w3.org/2000/svg">
<path d="M34.094 0.0724272C34.2017 0.119457 34.3891 0.224083 34.5103 0.304846C34.69 0.424602 37.4141 3.11187 38.2133 3.95791C38.3293 4.08069 39.032 4.79506 39.7749 5.5454C43.2809 9.08649 46.37 12.2288 46.4484 12.3339C46.496 12.3977 46.5805 12.5094 46.6362 12.5819C46.9644 13.0101 47.0701 13.4361 46.9551 13.8667C46.8776 14.1566 46.5042 14.5242 46.0834 14.725C45.6519 14.9307 45.6056 14.9492 45.286 15.0434C45.1379 15.0871 44.9174 15.1533 44.7962 15.1906C44.675 15.2278 44.4105 15.3067 44.2084 15.3658C43.3914 15.605 42.8531 15.7752 42.7006 15.8426C42.6122 15.8817 42.5013 15.9137 42.4544 15.9137C42.4074 15.9137 42.2043 15.968 42.0029 16.0344C40.9287 16.3889 40.4678 16.4321 39.9941 16.2228C39.667 16.0783 30.8992 7.20497 30.7103 6.82714C30.4828 6.37258 30.5002 5.88398 30.7655 5.27255C30.801 5.19069 30.886 4.9547 30.9542 4.74808C31.0225 4.54151 31.1121 4.3071 31.1532 4.22718C31.1943 4.14731 31.2281 4.0537 31.2283 4.01922C31.2284 3.98474 31.249 3.91777 31.2739 3.8704C31.2988 3.82302 31.4235 3.50522 31.551 3.16416C31.6785 2.8231 31.7984 2.52172 31.8175 2.49444C31.8366 2.46715 31.8637 2.38902 31.8778 2.32081C31.9374 2.03268 32.3295 1.08996 32.5155 0.787591C32.7479 0.409769 32.9434 0.209448 33.1931 0.0934619C33.4424 -0.0222759 33.8551 -0.0319502 34.094 0.0724272Z" fill="#242426"/>
<path d="M9.02792 1.96893C9.16845 2.02097 9.36011 2.11151 9.45381 2.1702C9.66281 2.30101 18.9493 11.7502 19.1136 11.9991C19.1782 12.0972 19.28 12.2981 19.3397 12.4456L19.4482 12.7139L19.4618 17.9626C19.4745 22.8542 19.4696 23.2239 19.3906 23.3948C19.2923 23.6073 19.1201 23.7898 18.9017 23.9131C18.6999 24.027 18.2429 24.0291 18.0633 23.9169C17.902 23.8161 17.416 23.349 17.416 23.2947C17.416 23.2733 17.3775 23.2159 17.3303 23.1672C17.1926 23.0248 16.7666 22.5155 16.6861 22.3971C16.6456 22.3374 16.5878 22.2661 16.5579 22.2388C16.5279 22.2115 16.4056 22.0668 16.2862 21.9171C15.9453 21.49 15.8874 21.4194 15.6527 21.1465C15.5315 21.0055 15.256 20.6716 15.0405 20.4047C14.825 20.1377 14.6264 19.8943 14.5991 19.8637C14.5719 19.833 14.4396 19.6742 14.3052 19.5107C14.1708 19.3472 14.0388 19.1886 14.0119 19.1584C13.985 19.1281 13.8829 19.0052 13.7851 18.8852C13.1061 18.0523 12.7282 17.5921 12.5467 17.3771C12.4315 17.2407 12.2311 16.9952 12.1014 16.8314C11.8873 16.5611 11.5651 16.1814 11.3515 15.9474C11.1766 15.7558 10.8507 15.5825 10.4981 15.4936C10.143 15.4041 10.119 15.4039 9.76959 15.4899C9.15797 15.6405 8.7452 15.9746 8.47082 16.541L8.33014 16.8314L8.32231 19.5793C8.31383 22.567 8.31182 22.591 8.03548 23.0341C7.78479 23.436 7.45515 23.6964 6.9342 23.904C6.70967 23.9935 2.01125 24.0346 1.62323 23.9505C1.03913 23.8239 0.47522 23.4076 0.231002 22.9228L0.224855 22.9106C0.204047 22.8693 0.185106 22.8317 0.167873 22.7934C-0.00693565 22.4043 -0.0060954 21.9345 0.00326785 16.6996L0.00353603 16.5496L0.00458538 15.9508C0.0128176 11.1987 0.0135849 10.7558 0.194587 10.4091C0.213193 10.3735 0.233704 10.3388 0.256323 10.3007C0.265218 10.2857 0.274439 10.2701 0.283999 10.2537C0.35409 10.1334 0.451954 9.99036 0.501375 9.93579C0.550846 9.88122 0.654684 9.75844 0.732123 9.66294C0.809561 9.56745 0.996863 9.35353 1.14841 9.18754C1.29991 9.0216 1.47805 8.82068 1.54427 8.74106C1.69092 8.5648 2.38924 7.76277 2.42617 7.72819C2.44071 7.71455 2.52751 7.61409 2.619 7.50495C2.7105 7.39581 2.89785 7.1817 3.03524 7.02915C3.17268 6.8766 3.39535 6.62107 3.53004 6.46133C3.66474 6.30159 3.89774 6.03573 4.04777 5.87058C4.27577 5.61951 4.78649 5.03517 5.58664 4.10971C5.66775 4.01585 5.84438 3.81359 5.97907 3.66025C6.46163 3.11088 6.5448 3.01504 6.83388 2.67477C7.11209 2.34745 7.4795 2.08001 7.84034 1.94224C8.08891 1.84739 8.73899 1.86197 9.02792 1.96893Z" fill="#242426"/>
<path d="M31.0246 10.3504C34.6347 14.0413 36.4571 15.902 40.0016 19.5165C41.9629 21.5165 42.0181 21.5835 42.1541 22.1303C42.2021 22.3236 42.1982 22.419 42.1313 22.6887C41.9784 23.3054 41.6223 23.7091 41.0511 23.9131C40.8276 23.993 40.5017 24 37.0035 24C33.4833 24 33.0153 24.0079 32.6532 23.8139C32.5818 23.7756 32.5144 23.7295 32.4286 23.6738C32.1642 23.5024 21.7558 12.9804 21.5625 12.6891C21.2858 12.2721 21.139 11.7198 21.1374 11.0899C21.1369 10.8371 21.1147 10.3513 21.0883 10.0102C21.0619 9.66915 21.0182 8.89897 20.9913 8.2987C20.9643 7.69843 20.9072 6.52641 20.8644 5.69422C20.741 3.29468 20.7227 3.04091 20.808 2.83005C20.823 2.79306 20.8412 2.75739 20.8625 2.71168C21.0139 2.38768 21.2416 2.15437 21.5616 1.99562C21.8775 1.83891 22.3532 1.83107 22.6896 1.97707C22.6979 1.98064 22.7058 1.98402 22.7136 1.9875C22.9457 2.09075 23.1374 2.28678 30.8418 10.1635L31.0246 10.3504Z" fill="#242426"/>
</svg>
