<svg width="24" height="24" viewBox="0 0 24 24" fill="none" xmlns="http://www.w3.org/2000/svg">
  <path d="M0 14V6.95c0-.57.06-.94.46-1.35.4-.4 1.11-.35 1.68-.35h2.91S10.14.66 10.71.3c.57-.37 1.25-.37 1.8-.13.57.25.99.76.99 1.41v17.85c-.01.64-.43 1.14-.99 1.39-.55.24-1.23.23-1.8-.13-.57-.37-5.66-4.92-5.66-4.92H2.14c-.57 0-1.28-.03-1.68-.44C.06 14.95 0 14.57 0 14Z" fill="currentColor"/>
  <path d="M16.2 9.2 22.8 15.8M22.8 9.2 16.2 15.8" stroke="currentColor" stroke-width="1.8" stroke-linecap="round"/>
</svg>
