<svg width="115" height="58" viewBox="0 0 115 58" fill="none" xmlns="http://www.w3.org/2000/svg">
  <path fill-rule="evenodd" clip-rule="evenodd" d="M58.7184 57.1945C61.4025 56.7126 63.8048 55.7483 65.6581 54.4087C66.123 54.0728 67.0438 53.4115 67.7045 52.9391C70.9215 50.6389 71.6355 52.4192 72.1958 50.1246C72.5225 48.7868 72.6979 48.4719 73.4431 47.8857C75.1437 46.548 76.1141 45.303 76.5501 43.8998C76.6331 43.6327 76.752 43.3149 76.8142 43.1935C76.8765 43.0721 76.9976 42.6549 77.0832 42.2664C77.2468 41.5249 77.695 39.7507 77.9085 38.9995C78.0466 38.514 78.0326 37.7883 77.8489 35.9041C77.7663 35.0558 77.7612 34.5686 77.8296 34.0602C77.9075 33.4814 77.8946 33.2024 77.75 32.3434C77.655 31.7793 77.4953 31.0718 77.3953 30.7712C77.1613 30.0684 76.7798 28.1717 76.7784 27.7049C76.7748 26.4504 75.9117 25.2585 74.5318 24.6022C74.1804 24.4351 73.8419 24.2984 73.7796 24.2984C73.57 24.2984 72.5568 23.923 72.1752 23.704C71.7512 23.4606 71.6755 23.1914 71.9973 23.0716C72.1074 23.0306 72.5078 22.9687 72.887 22.9339C73.2662 22.8991 73.5765 22.8494 73.5765 22.8233C73.5765 22.7209 73.0602 21.9556 72.557 21.3121C71.4376 19.8806 68.6387 17.4971 67.1878 16.7397C66.0043 16.1218 64.3214 15.5309 62.7698 15.1882C62.3276 15.0906 61.7256 14.9579 61.432 14.8935C60.8443 14.7645 58.2226 14.5522 58.1052 14.6242C58.0647 14.649 57.4955 14.6731 56.8402 14.6777C55.8386 14.6847 55.5498 14.6546 55.0261 14.4893C53.2627 13.9324 49.5469 14.608 46.7982 15.9855C45.794 16.4888 44.477 17.4036 44.1565 17.8205C44.004 18.0189 43.8538 18.1177 43.7045 18.1177C43.3469 18.1177 42.9197 18.4379 42.2486 19.2087C41.9043 19.6042 41.2499 20.2059 40.7942 20.5458C38.366 22.3577 37.9503 22.7554 36.9661 24.2085C36.6501 24.6751 36.1942 25.4722 35.9531 25.9799C35.4626 27.0126 34.8742 28.6231 34.8742 28.9332C34.8742 29.0806 34.998 29.215 35.326 29.4239C36.0292 29.8717 36.0504 29.9302 35.9779 31.2258C35.9165 32.3219 35.9097 32.3495 35.6088 32.7407C35.2328 33.2295 34.7932 34.1597 34.4431 35.2076C33.8815 36.8885 33.8591 37.6813 34.352 38.4436C34.7888 39.119 35.041 39.9441 35.1429 41.0302C35.2426 42.0933 35.3536 42.8009 35.5376 43.5466C35.6034 43.8137 35.7275 44.3302 35.8133 44.6945C36.0375 45.6467 36.384 46.5442 37.0458 47.887C38.1864 50.2011 39.2347 52.0573 39.8648 52.8783C40.9216 54.2556 42.847 53.2797 44.3783 54.1515C45.7438 54.9289 50.5109 56.7786 51.9869 57.1038C52.8834 57.3012 57.7578 57.367 58.7184 57.1945ZM50.5503 49.1001C50.3206 49.0465 49.7278 48.8101 49.233 48.5747C48.025 48 47.6537 47.5953 47.194 46.3523C46.6179 44.7944 45.8431 43.6018 44.653 42.4414C44.3149 42.1117 44.0382 41.7937 44.0382 41.7347C44.0382 41.6758 44.2016 41.5203 44.4013 41.3892L44.7644 41.1507L44.3123 40.6763C44.0637 40.4154 43.8603 40.1627 43.8603 40.1147C43.8603 40.0061 44.0856 39.7782 44.3121 39.658C44.4566 39.5811 44.4831 39.4681 44.4831 38.9255C44.4831 38.3543 44.4443 38.2067 44.1299 37.5821C43.9355 37.1961 43.6177 36.6289 43.4236 36.3216C42.7252 35.216 42.8085 34.2051 43.811 31.6268C44.4742 29.9212 45.4593 28.3847 46.5897 27.2929C47.5015 26.4123 48.3961 25.7941 49.8027 25.0723C51.1394 24.3864 51.8214 23.9657 52.6303 23.3278C53.0002 23.036 53.3917 22.7974 53.5003 22.7974C53.6089 22.7974 53.9166 22.8736 54.184 22.9668C55.013 23.2558 56.1712 23.3667 58.0984 23.3416L59.2133 23.3271L59.314 23.0622C59.4089 22.8126 59.4426 22.7974 59.8989 22.7974C60.3689 22.7974 60.3855 22.8058 60.4657 23.0843L60.5484 23.3713L61.5685 23.4211C62.1295 23.4485 62.7022 23.5183 62.841 23.5763C63.2477 23.7462 64.1331 24.4592 64.9464 25.2718C65.3623 25.6874 65.8427 26.1222 66.014 26.2379C66.4923 26.5613 67.3547 27.3794 67.7368 27.8724C68.3842 28.7077 69.0248 30.2338 69.1644 31.2737C69.2751 32.0984 69.2328 33.978 69.0819 34.9379C68.998 35.4721 68.8983 36.1475 68.8604 36.4389C68.7634 37.1848 68.5333 38.4926 68.3168 39.5292C67.9706 41.1868 67.5452 42.0077 65.9878 44.0242C65.1815 45.0682 65.0845 45.4315 65.3462 46.4283C65.4643 46.8784 65.4642 46.9571 65.345 47.1375C65.2713 47.2492 65.1215 47.3588 65.0119 47.381C64.6274 47.4593 63.2966 47.6951 62.9445 47.7473C62.6894 47.7851 62.45 47.7457 62.0993 47.6082C60.4782 46.9729 60.0224 46.8791 59.0988 46.9905C58.0169 47.1211 57.2422 47.4939 56.5386 48.2229C56.245 48.5271 55.876 48.8311 55.7185 48.8984C55.5247 48.9814 55.036 49.0239 54.206 49.0303C53.5316 49.0354 52.6194 49.0689 52.179 49.1045C51.7386 49.1403 51.286 49.1758 51.173 49.1836C51.0601 49.1912 50.7799 49.1537 50.5503 49.1001Z" fill="white" />
  <path d="M59.1075 7.39057C60.9565 7.39589 62.0946 5.6887 64.3021 5.47169C65.6842 5.33408 66.386 5.55267 67.3166 5.57206C67.8718 5.58348 68.5121 5.52353 69.3934 5.24899C70.3414 4.94848 71.3824 4.72607 71.8299 4.50824C71.8148 4.52393 71.7585 4.55989 71.6664 4.66384C71.5743 4.76179 71.4752 4.95488 71.46 5.02528C71.3794 5.25157 71.4113 5.55382 71.4701 5.68172C71.527 5.81933 71.5692 5.84506 71.5758 5.84541C71.7511 6.03077 71.6922 5.9433 71.6672 5.92869C71.6312 5.89801 71.5746 5.85721 71.5152 5.8179C71.3949 5.73819 71.2577 5.65911 71.126 5.59153C70.8597 5.45501 70.6047 5.35749 70.3818 5.31559C69.6949 5.18868 69.5451 4.79619 69.1769 4.39376C68.9815 4.15935 68.6772 3.92236 68.097 3.79374C67.1844 3.59483 66.4949 3.38982 65.817 3.096C65.3875 2.90969 65.0045 2.7085 64.5309 2.50658C64.1676 2.34782 63.5152 2.19111 62.7191 2.08637C60.9044 1.84508 58.4691 1.7915 57.3843 2.06463C57.3065 2.08431 57.2262 2.10144 57.1489 2.11619L57.1646 2.11594C56.2111 2.3204 55.2862 2.13298 54.5206 2.20634L54.5342 2.2017C54.0204 2.26331 53.5397 2.319 53.1668 2.40229C52.8363 2.47647 52.5658 2.50988 52.3514 2.51871C52.2606 2.52246 52.2006 2.47894 52.1777 2.42153C52.1777 2.42149 52.1777 2.42145 52.1776 2.42142C52.1494 2.34986 52.1787 2.25679 52.2781 2.20707C52.7346 1.97996 53.3779 1.60452 54.1338 1.07206C54.1363 1.07132 54.1438 1.06843 54.1464 1.06775C54.1961 1.03554 54.2467 1.00304 54.3 0.970035C55.6232 0.255962 56.1316 0.529854 57.124 0.519884C57.127 0.519987 57.1358 0.519492 57.1387 0.519651C57.5638 0.536284 58.0855 0.530899 58.8063 0.454294C60.3173 0.296468 61.4466 0.0368689 62.8154 0.00158811C63.6141 -0.0106325 64.566 0.0310295 65.7012 0.432925C66.0076 0.542887 66.2778 0.637523 66.5276 0.714084C67.9444 1.16388 68.9311 0.93686 70.5373 1.55706C71.241 1.84597 72.0089 2.23643 73.052 3.11878C73.1596 3.21162 73.2685 3.30533 73.3895 3.41339C73.521 3.53889 73.6209 3.59485 73.9058 3.94277C74.1956 4.32923 74.5864 5.21291 74.2472 6.0322C74.1717 6.23842 73.9934 6.53259 73.8113 6.70722C73.6294 6.88866 73.4671 6.99048 73.3332 7.06814C70.9906 8.12898 70.3948 8.79127 68.1434 9.63788C67.7931 9.76119 67.4048 9.87975 66.9683 9.98997C63.1067 10.9689 58.0326 11.0453 55.6557 11.4801C55.3363 11.5398 54.991 11.6043 54.6405 11.6681C52.6247 11.987 50.2763 12.5919 47.1768 12.1883C46.8514 12.1349 46.5215 12.0755 46.1876 12.0075C44.6235 11.6805 42.7105 11.4006 40.7989 10.4363C40.1643 10.1192 39.5243 9.79852 38.8777 9.45213C38.5526 9.27758 38.2297 9.09923 37.8931 8.89821C37.7234 8.79648 37.5554 8.6928 37.3638 8.56385C37.2691 8.49969 37.1687 8.43002 37.0467 8.33625C36.9857 8.2891 36.9169 8.23448 36.8322 8.15937C36.7387 8.07073 36.6488 8.00829 36.4386 7.72956C36.2927 7.52075 36.0808 7.19021 36.0079 6.6489C35.9272 6.10477 36.1215 5.51259 36.3083 5.21993C36.3036 5.23063 36.3731 5.11112 36.432 5.02707C36.4917 4.94015 36.5599 4.85257 36.6174 4.78532C36.7388 4.64314 36.8456 4.54071 36.9452 4.45134C37.1416 4.27695 37.3121 4.15478 37.4724 4.04699C37.7905 3.83544 38.0815 3.67857 38.3679 3.53718C39.3715 3.04881 40.4186 2.64622 41.5089 2.24652C42.5353 1.87535 43.5555 1.53514 44.7009 1.29757C46.6782 0.892995 48.323 1.18592 49.5046 1.27356C49.7323 1.2977 49.9518 1.32133 50.145 1.34428C52.5828 1.63126 53.173 1.69896 55.5147 1.50841C56.3904 1.43733 57.486 1.45356 58.5708 1.58055C59.1556 1.64845 59.7327 1.74798 60.28 1.88274C61.066 2.07737 60.89 2.35051 60.0974 2.48242C59.5351 2.57599 59.0226 2.59455 58.5726 2.62789C58.1008 2.66327 57.695 2.71535 57.3885 2.8915C56.1965 3.57531 55.6903 3.83763 54.1826 3.44521C52.6753 3.0531 51.9679 3.95751 51.0919 3.85823C50.6024 3.80305 50.3873 3.6125 49.5236 3.53291C48.8816 3.49091 47.6233 3.40809 46.0735 3.85688C45.8823 3.92023 45.6907 3.99336 45.4808 4.07425C44.5864 4.44568 43.6891 4.93219 42.961 5.34328C42.0318 5.86799 41.2766 6.31477 40.6869 6.70124C40.3942 6.89337 40.1421 7.07174 39.9581 7.2219C39.7864 7.34749 39.6331 7.56754 39.8484 7.3252C39.8703 7.29846 39.9137 7.22595 39.87 7.3049C39.9999 7.10435 40.1754 6.62718 40.1161 6.15736C40.0618 5.69041 39.884 5.42538 39.7915 5.29266C39.5488 4.98528 39.5552 5.04006 39.5418 5.01922C39.5387 5.01762 39.5651 5.03886 39.5989 5.06368C39.6687 5.11532 39.7739 5.18803 39.8879 5.26465C40.1183 5.41956 40.3964 5.59974 40.6903 5.78796C41.2824 6.16652 41.9526 6.58638 42.6462 7.00197C43.3874 7.46295 44.2981 7.77704 45.2127 7.90878C45.8541 8.00409 46.7016 8.1173 47.6716 8.22387C49.4866 8.4276 52.3038 8.00589 54.0504 7.65282C54.4092 7.57749 54.7379 7.49887 55.0056 7.42206C57.1575 6.79993 57.2611 7.37883 59.1075 7.39057Z" fill="white" />
  <path d="M8.04224 27.6306C8.34329 28.5467 9.15532 29.2294 10.0322 29.7893C10.909 30.247 12.2367 30.4613 13.8614 31.3433C14.249 31.553 14.5954 31.7514 14.9062 31.9404C15.826 32.5041 16.5112 33.0024 17.2995 33.5241C17.6981 33.7877 18.1286 34.0523 18.6798 34.383C18.9577 34.5524 19.2569 34.7269 19.6394 34.9965C19.8313 35.1371 20.039 35.2821 20.3179 35.581C20.4615 35.7458 20.625 35.925 20.7887 36.3197C20.9569 36.6807 21.0092 37.4403 20.7181 37.9611C20.6112 38.1756 20.465 38.3577 20.3575 38.4701C19.8965 38.9244 19.6176 39.012 19.3565 39.1391C19.0959 39.2515 18.8834 39.3209 18.6662 39.3849C18.2455 39.5067 17.8596 39.5841 17.4835 39.6479C16.7341 39.7728 16.0266 39.8368 15.3525 39.8833C14.0054 39.9736 12.7877 39.9859 11.8035 40.0487C11.0815 40.0944 10.4793 40.1667 10.0479 40.2928C9.55744 40.4368 9.14005 40.4681 9.12161 40.4075C9.3322 40.3375 9.65147 40.1717 9.88823 39.8304C10.117 39.5022 10.1567 39.1591 10.1514 38.9814C10.1304 38.6146 10.0565 38.5578 10.0269 38.5002C9.95974 38.4162 9.94709 38.469 9.94547 38.5165C9.94616 38.6244 10.0017 38.7956 10.0911 38.9769C10.2736 39.3441 10.6106 39.787 11.2483 40.2876C12.1847 41.0197 12.9303 41.635 13.6078 42.2719C14.2247 42.8526 14.8281 43.4056 15.6325 44.016C16.5978 44.8093 19.3249 45.9958 21.8909 46.7013L21.8676 46.6953C23.4511 47.078 24.9459 47.3246 25.8607 47.3574C27.4935 47.4144 29.1875 47.9607 30.6057 48.4317C31.2736 48.6523 31.8746 48.8592 32.3681 48.9585C32.8515 49.058 33.1882 49.0934 33.4867 49.0519C33.6118 49.0368 33.6921 49.068 33.7169 49.125C33.717 49.1251 33.717 49.1251 33.717 49.1252C33.7469 49.195 33.6932 49.3059 33.5254 49.3741C32.7501 49.688 31.6643 49.5151 30.4132 49.5434C30.2626 49.5445 30.1057 49.5459 29.9458 49.5485C27.2145 49.5814 27.0323 48.9787 23.43 48.502C22.7469 48.4076 22.1101 48.3273 21.5003 48.2467C21.4923 48.2445 21.468 48.2389 21.4601 48.2363C18.9083 47.7376 16.6495 47.5977 13.5267 45.4069C12.9371 44.966 12.4301 44.5675 11.9676 44.1989C11.1119 43.5188 10.3377 43.0401 9.52503 42.4744C9.11862 42.1899 8.70174 41.8843 8.25868 41.4934C8.03667 41.2961 7.80601 41.078 7.55633 40.7947C7.42874 40.6472 7.29987 40.4953 7.13841 40.2466C7.05985 40.1175 6.96466 39.9823 6.84604 39.6539C6.81652 39.566 6.78696 39.4725 6.75907 39.3181C6.73571 39.179 6.70912 38.9761 6.74595 38.6953C6.7773 38.4245 6.92053 37.9944 7.21474 37.6716C7.51913 37.3346 7.83215 37.1909 8.09086 37.1078C8.9575 36.8757 9.31041 36.924 9.87265 36.8967C10.3997 36.888 10.9643 36.9021 11.5774 36.938C11.6202 36.9407 11.6637 36.9434 11.708 36.9462C13.6125 37.0722 14.9426 36.9861 16.0324 36.7498C16.5745 36.6319 17.0589 36.4773 17.4705 36.2917C17.6732 36.1996 17.8657 36.0958 17.9835 35.9983C18.0413 35.9509 18.0807 35.9016 18.0499 35.8879C18.023 35.8976 17.8878 35.829 17.5544 36.3356C17.3648 36.636 17.3086 37.1582 17.3849 37.4522C17.451 37.7515 17.5383 37.8823 17.5735 37.9583C17.6501 38.1001 17.6075 38.0799 17.5334 38.0662C17.3789 38.0245 17.094 37.9209 16.7737 37.8146C16.1229 37.5947 15.2922 37.3238 14.2697 36.9323C13.8377 36.7661 13.3902 36.5882 12.9147 36.3798C11.104 35.5109 9.05704 34.8358 6.99002 32.6773C5.81653 31.289 4.65315 29.7632 4.19852 27.6226C4.19201 27.4735 4.04687 27.2677 4.17986 26.4598C4.25051 26.0606 4.56107 25.4959 4.93638 25.2021C5.30258 24.9012 5.61049 24.8028 5.82614 24.7409C6.64271 24.5645 6.83694 24.6733 7.12872 24.6933C9.06244 25.0992 9.97905 25.4303 10.9938 25.5619C11.2515 25.5996 11.5158 25.6347 11.7867 25.6666C12.8925 25.7984 14.0896 25.9339 15.3667 26.078C16.0027 26.1495 16.6557 26.2229 17.3225 26.2959C17.6558 26.3323 17.9861 26.368 18.3206 26.4017C18.481 26.4177 18.6521 26.4343 18.8037 26.447C18.876 26.4531 18.9562 26.4592 19.0056 26.4618C19.0318 26.4635 19.0558 26.4637 19.0298 26.4633C19.0251 26.4633 19.0066 26.4632 18.9781 26.4643C18.943 26.4674 18.9318 26.4605 18.7463 26.4889C18.7007 26.4967 18.6451 26.5074 18.5698 26.5274C18.5129 26.5445 18.5545 26.5261 18.3731 26.5909C18.2291 26.6501 18.0224 26.7259 17.723 26.9925C17.4335 27.2352 17.0305 27.864 17.0639 28.5476C17.081 28.9141 17.1406 29.0648 17.207 29.2464C17.2748 29.4168 17.3535 29.5506 17.4276 29.6574C17.7334 30.0716 17.923 30.1521 18.0451 30.2362C18.2481 30.352 18.2359 30.3355 18.2992 30.365C18.3453 30.3841 18.3763 30.3951 18.4 30.4034C16.933 29.9503 15.0152 29.1741 13.4707 28.0673C12.7629 27.5719 12.0603 27.019 11.3839 26.4046C9.33542 24.5873 7.10136 22.1796 5.74176 19.2973C4.78111 17.2985 3.97497 15.2854 3.38853 13.2259C3.27393 12.8171 3.15919 12.3919 3.05108 11.9319C2.99579 11.6949 2.94471 11.4654 2.89418 11.1734C2.86802 11.0105 2.8422 10.8823 2.82547 10.5842C2.82294 10.5018 2.81843 10.4363 2.83062 10.2637C2.83737 10.1834 2.84819 10.0924 2.87439 9.97549C2.91659 9.8014 2.9798 9.55915 3.21096 9.24986C3.2936 9.13054 3.57755 8.84216 3.88257 8.71165C4.18797 8.56378 4.5711 8.52912 4.78987 8.55412C5.17614 8.59274 5.40705 8.71589 5.56752 8.8089C5.80805 8.95989 5.87727 9.04038 5.97171 9.13237C6.39083 9.60601 6.456 9.80224 6.61676 10.0644C6.75634 10.3111 6.87993 10.5424 7.00339 10.7716C7.24901 11.2288 7.48916 11.6717 7.74085 12.1052C9.00313 14.1725 11.0304 16.2575 12.6762 17.8354C13.6759 18.7928 14.6141 19.5539 15.3634 20.1143C16.0048 20.595 16.562 20.9692 17.0664 21.288C18.8401 22.3762 19.8476 23.0108 22.4285 23.6334C22.6626 23.684 22.907 23.7345 23.16 23.7824C25.0596 24.1443 27.3845 24.7402 29.3686 25.4261C30.5073 25.8112 30.2056 26.0439 28.992 25.9694C27.2213 25.8528 25.8334 25.4396 24.8753 25.5918C24.0128 25.7293 23.3668 25.8193 22.7246 25.7976C21.878 25.7525 21.013 25.4924 19.8603 24.7991C18.1658 23.7499 16.9934 23.6999 15.9743 23.3393C15.7443 23.2545 15.5234 23.1501 15.3117 23.0102C14.3788 22.3287 14.276 22.0781 11.1299 19.6953C10.4676 19.171 9.67127 18.544 8.71178 17.7363C7.22415 16.4677 6.01374 15.3259 4.97438 13.9569C4.60797 13.4622 4.28208 12.9883 3.98788 12.559C3.84143 12.3456 3.70138 12.1408 3.57599 11.9671C3.4683 11.8109 3.27975 11.5932 3.38008 11.7238C3.4069 11.7515 3.44448 11.7884 3.50469 11.8372C3.57136 11.8854 3.61776 11.9428 3.89135 12.0703C4.02032 12.1264 4.19165 12.186 4.42057 12.213C4.63897 12.2499 5.1553 12.2139 5.52017 12.0059C5.70861 11.9067 5.87068 11.7785 5.99508 11.6496C6.11161 11.5273 6.16556 11.4507 6.22655 11.358C6.34013 11.1803 6.39764 11.0315 6.43532 10.9138C6.51018 10.6514 6.49769 10.6362 6.51047 10.5441C6.51714 10.4731 6.51724 10.4167 6.5175 10.3962C6.51771 10.3426 6.5158 10.3167 6.51625 10.308C6.5172 10.2805 6.53782 10.3716 6.56145 10.446C6.61111 10.6118 6.67875 10.8136 6.74796 11.0093C6.88644 11.3999 7.03502 11.7851 7.17849 12.1461C7.46737 12.8713 7.73951 13.5085 7.991 14.0758C8.37278 14.9348 8.84288 16.1867 9.42455 17.5613C10.2724 19.6689 11.8858 21.8899 13.8105 23.4467C13.8553 23.4841 13.9007 23.522 13.9466 23.5603C15.2502 24.66 17.1273 25.8176 19.7247 26.5647C19.7622 26.5777 19.8053 26.5933 19.8622 26.617C19.8908 26.6289 19.9229 26.6429 19.9608 26.661C20.0099 26.6863 20.0018 26.6752 20.1651 26.7728C20.3003 26.8711 20.5184 26.9611 20.8376 27.4565C20.9763 27.7241 21.1887 28.0383 21.0996 28.8086C20.9889 29.5102 20.551 29.9434 20.2987 30.1244C20.0291 30.3174 19.8555 30.3731 19.7274 30.4183C19.6571 30.441 19.6295 30.4479 19.5884 30.4585C19.5133 30.4774 19.456 30.4879 19.4075 30.4958C19.2049 30.525 19.1822 30.5191 19.1249 30.5229C19.0764 30.5247 19.0292 30.5248 19.0078 30.5247C18.8951 30.5239 18.8351 30.5204 18.7657 30.5168C18.6461 30.5102 18.535 30.5015 18.4396 30.4936C18.2393 30.4769 18.0485 30.4583 17.8631 30.4396C17.4913 30.4018 17.1312 30.3618 16.7738 30.3213C16.0598 30.2401 15.3702 30.1579 14.7047 30.0796C13.384 29.924 12.1835 29.7866 11.2157 29.7004C10.8962 29.6711 10.6019 29.6429 10.336 29.6188C8.13998 29.4105 7.21793 28.9641 6.69712 28.6757C6.64406 28.6211 6.51313 28.6195 6.83185 28.5242C6.92242 28.4899 7.07118 28.4477 7.30926 28.2803C7.54846 28.1246 7.85345 27.7282 7.93003 27.3966C8.06245 26.7299 7.90587 26.7102 7.92367 26.76C7.90226 26.9755 7.92494 27.2627 8.04224 27.6306Z" fill="white" />
  <path d="M106.218 27.6306C105.91695 28.5467 105.10492 29.2294 104.22804 29.7893C103.35124 30.247 102.02354 30.4613 100.39884 31.3433C100.01124 31.553 99.66484 31.7514 99.35404 31.9404C98.43424 32.5041 97.74904 33.0024 96.96074 33.5241C96.56214 33.7877 96.13164 34.0523 95.58044 34.383C95.30254 34.5524 95.00334 34.7269 94.62084 34.9965C94.42894 35.1371 94.22124 35.2821 93.94234 35.581C93.79874 35.7458 93.63524 35.925 93.47154 36.3197C93.30334 36.6807 93.25104 37.4403 93.54214 37.9611C93.64904 38.1756 93.79524 38.3577 93.90274 38.4701C94.36374 38.9244 94.64264 39.012 94.90374 39.1391C95.16434 39.2515 95.37684 39.3209 95.59404 39.3849C96.01474 39.5067 96.40064 39.5841 96.77674 39.6479C97.52614 39.7728 98.23364 39.8368 98.90774 39.8833C100.25484 39.9736 101.47254 39.9859 102.45674 40.0487C103.17874 40.0944 103.78094 40.1667 104.21234 40.2928C104.7028 40.4368 105.12019 40.4681 105.13863 40.4075C104.92804 40.3375 104.60877 40.1717 104.37201 39.8304C104.14324 39.5022 104.10354 39.1591 104.10884 38.9814C104.12984 38.6146 104.20374 38.5578 104.23334 38.5002C104.3005 38.4162 104.31315 38.469 104.31477 38.5165C104.31408 38.6244 104.25854 38.7956 104.16914 38.9769C103.98664 39.3441 103.64964 39.787 103.01194 40.2876C102.07554 41.0197 101.32994 41.635 100.65244 42.2719C100.03554 42.8526 99.43214 43.4056 98.62774 44.016C97.66244 44.8093 94.93534 45.9958 92.36934 46.7013L92.39264 46.6953C90.80914 47.078 89.31434 47.3246 88.39954 47.3574C86.76674 47.4144 85.07274 47.9607 83.65454 48.4317C82.98664 48.6523 82.38564 48.8592 81.89214 48.9585C81.40874 49.058 81.07204 49.0934 80.77354 49.0519C80.64844 49.0368 80.56814 49.068 80.54334 49.125C80.54324 49.1251 80.54324 49.1251 80.54324 49.1252C80.51334 49.195 80.56704 49.3059 80.73484 49.3741C81.51014 49.688 82.59594 49.5151 83.84704 49.5434C83.99764 49.5445 84.15454 49.5459 84.31444 49.5485C87.04574 49.5814 87.22794 48.9787 90.83024 48.502C91.51334 48.4076 92.15014 48.3273 92.75994 48.2467C92.76794 48.2445 92.79224 48.2389 92.80014 48.2363C95.35194 47.7376 97.61074 47.5977 100.73354 45.4069C101.32314 44.966 101.83014 44.5675 102.29264 44.1989C103.14834 43.5188 103.92254 43.0401 104.73521 42.4744C105.14162 42.1899 105.5585 41.8843 106.00156 41.4934C106.22357 41.2961 106.45423 41.078 106.70391 40.7947C106.8315 40.6472 106.96037 40.4953 107.12183 40.2466C107.20039 40.1175 107.29558 39.9823 107.4142 39.6539C107.44372 39.566 107.47328 39.4725 107.50117 39.3181C107.52453 39.179 107.55112 38.9761 107.51429 38.6953C107.48294 38.4245 107.33971 37.9944 107.0455 37.6716C106.74111 37.3346 106.42809 37.1909 106.16938 37.1078C105.30274 36.8757 104.94983 36.924 104.38759 36.8967C103.86054 36.888 103.29594 36.9021 102.68284 36.938C102.64004 36.9407 102.59654 36.9434 102.55224 36.9462C100.64774 37.0722 99.31764 36.9861 98.22784 36.7498C97.68574 36.6319 97.20134 36.4773 96.78974 36.2917C96.58704 36.1996 96.39454 36.0958 96.27674 35.9983C96.21894 35.9509 96.17954 35.9016 96.21034 35.8879C96.23724 35.8976 96.37244 35.829 96.70584 36.3356C96.89544 36.636 96.95164 37.1582 96.87534 37.4522C96.80924 37.7515 96.72194 37.8823 96.68674 37.9583C96.61014 38.1001 96.65274 38.0799 96.72684 38.0662C96.88134 38.0245 97.16624 37.9209 97.48654 37.8146C98.13734 37.5947 98.96804 37.3238 99.99054 36.9323C100.42254 36.7661 100.87004 36.5882 101.34554 36.3798C103.15624 35.5109 105.2032 34.8358 107.27022 32.6773C108.44371 31.289 109.60709 29.7632 110.06172 27.6226C110.06823 27.4735 110.21337 27.2677 110.08038 26.4598C110.00973 26.0606 109.69917 25.4959 109.32386 25.2021C108.95766 24.9012 108.64975 24.8028 108.4341 24.7409C107.61753 24.5645 107.4233 24.6733 107.13152 24.6933C105.1978 25.0992 104.28119 25.4303 103.26644 25.5619C103.00874 25.5996 102.74444 25.6347 102.47354 25.6666C101.36774 25.7984 100.17064 25.9339 98.89354 26.078C98.25754 26.1495 97.60454 26.2229 96.93774 26.2959C96.60444 26.3323 96.27414 26.368 95.93964 26.4017C95.77924 26.4177 95.60814 26.4343 95.45654 26.447C95.38424 26.4531 95.30404 26.4592 95.25464 26.4618C95.22844 26.4635 95.20444 26.4637 95.23044 26.4633C95.23514 26.4633 95.25364 26.4632 95.28214 26.4643C95.31724 26.4674 95.32844 26.4605 95.51394 26.4889C95.55954 26.4967 95.61514 26.5074 95.69044 26.5274C95.74734 26.5445 95.70574 26.5261 95.88714 26.5909C96.03114 26.6501 96.23784 26.7259 96.53724 26.9925C96.82674 27.2352 97.22974 27.864 97.19634 28.5476C97.17924 28.9141 97.11964 29.0648 97.05324 29.2464C96.98544 29.4168 96.90674 29.5506 96.83264 29.6574C96.52684 30.0716 96.33724 30.1521 96.21514 30.2362C96.01214 30.352 96.02434 30.3355 95.96104 30.365C95.91494 30.3841 95.88394 30.3951 95.86024 30.4034C97.32724 29.9503 99.24504 29.1741 100.78954 28.0673C101.49734 27.5719 102.19994 27.019 102.87634 26.4046C104.92482 24.5873 107.15888 22.1796 108.51848 19.2973C109.47913 17.2985 110.28527 15.2854 110.87171 13.2259C110.98631 12.8171 111.10105 12.3919 111.20916 11.9319C111.26445 11.6949 111.31553 11.4654 111.36606 11.1734C111.39222 11.0105 111.41804 10.8823 111.43477 10.5842C111.4373 10.5018 111.44181 10.4363 111.42962 10.2637C111.42287 10.1834 111.41205 10.0924 111.38585 9.97549C111.34365 9.8014 111.28044 9.55915 111.04928 9.24986C110.96664 9.13054 110.68269 8.84216 110.37767 8.71165C110.07227 8.56378 109.68914 8.52912 109.47037 8.55412C109.0841 8.59274 108.85319 8.71589 108.69272 8.8089C108.45219 8.95989 108.38297 9.04038 108.28853 9.13237C107.86941 9.60601 107.80424 9.80224 107.64348 10.0644C107.5039 10.3111 107.38031 10.5424 107.25685 10.7716C107.01123 11.2288 106.77108 11.6717 106.51939 12.1052C105.25711 14.1725 103.22984 16.2575 101.58404 17.8354C100.58434 18.7928 99.64614 19.5539 98.89684 20.1143C98.25544 20.595 97.69824 20.9692 97.19384 21.288C95.42014 22.3762 94.41264 23.0108 91.83174 23.6334C91.59764 23.684 91.35324 23.7345 91.10024 23.7824C89.20064 24.1443 86.87574 24.7402 84.89164 25.4261C83.75294 25.8112 84.05464 26.0439 85.26824 25.9694C87.03894 25.8528 88.42684 25.4396 89.38494 25.5918C90.24744 25.7293 90.89344 25.8193 91.53564 25.7976C92.38224 25.7525 93.24724 25.4924 94.39994 24.7991C96.09444 23.7499 97.26684 23.6999 98.28594 23.3393C98.51594 23.2545 98.73684 23.1501 98.94854 23.0102C99.88144 22.3287 99.98424 22.0781 103.13034 19.6953C103.79264 19.171 104.58897 18.544 105.54846 17.7363C107.03609 16.4677 108.2465 15.3259 109.28586 13.9569C109.65227 13.4622 109.97816 12.9883 110.27236 12.559C110.41881 12.3456 110.55886 12.1408 110.68425 11.9671C110.79194 11.8109 110.98049 11.5932 110.88016 11.7238C110.85334 11.7515 110.81576 11.7884 110.75555 11.8372C110.68888 11.8854 110.64248 11.9428 110.36889 12.0703C110.23992 12.1264 110.06859 12.186 109.83967 12.213C109.62127 12.2499 109.10494 12.2139 108.74007 12.0059C108.55163 11.9067 108.38956 11.7785 108.26516 11.6496C108.14863 11.5273 108.09468 11.4507 108.03369 11.358C107.92011 11.1803 107.8626 11.0315 107.82492 10.9138C107.75006 10.6514 107.76255 10.6362 107.74977 10.5441C107.7431 10.4731 107.743 10.4167 107.74274 10.3962C107.74253 10.3426 107.74444 10.3167 107.74399 10.308C107.74304 10.2805 107.72242 10.3716 107.69879 10.446C107.64913 10.6118 107.58149 10.8136 107.51228 11.0093C107.3738 11.3999 107.22522 11.7851 107.08175 12.1461C106.79287 12.8713 106.52073 13.5085 106.26924 14.0758C105.88746 14.9348 105.41736 16.1867 104.83569 17.5613C103.98784 19.6689 102.37444 21.8899 100.44974 23.4467C100.40494 23.4841 100.35954 23.522 100.31364 23.5603C99.01004 24.66 97.13294 25.8176 94.53554 26.5647C94.49804 26.5777 94.45494 26.5933 94.39804 26.617C94.36944 26.6289 94.33734 26.6429 94.29944 26.661C94.25034 26.6863 94.25844 26.6752 94.09514 26.7728C93.95994 26.8711 93.74184 26.9611 93.42264 27.4565C93.28394 27.7241 93.07154 28.0383 93.16064 28.8086C93.27134 29.5102 93.70924 29.9434 93.96154 30.1244C94.23114 30.3174 94.40474 30.3731 94.53284 30.4183C94.60314 30.441 94.63074 30.4479 94.67184 30.4585C94.74694 30.4774 94.80424 30.4879 94.85274 30.4958C95.05534 30.525 95.07804 30.5191 95.13534 30.5229C95.18384 30.5247 95.23104 30.5248 95.25244 30.5247C95.36514 30.5239 95.42514 30.5204 95.49454 30.5168C95.61414 30.5102 95.72524 30.5015 95.82064 30.4936C96.02094 30.4769 96.21174 30.4583 96.39714 30.4396C96.76894 30.4018 97.12904 30.3618 97.48644 30.3213C98.20044 30.2401 98.89004 30.1579 99.55554 30.0796C100.87624 29.924 102.07674 29.7866 103.04454 29.7004C103.36404 29.6711 103.65834 29.6429 103.92424 29.6188C106.12026 29.4105 107.04231 28.9641 107.56312 28.6757C107.61618 28.6211 107.74711 28.6195 107.42839 28.5242C107.33782 28.4899 107.18906 28.4477 106.95098 28.2803C106.71178 28.1246 106.40679 27.7282 106.33021 27.3966C106.19779 26.7299 106.35437 26.7102 106.33657 26.76C106.35798 26.9755 106.3353 27.2627 106.218 27.6306Z" fill="white" />
</svg>
