<svg width="44" height="58" viewBox="0 0 44 58" fill="none" xmlns="http://www.w3.org/2000/svg">
  <path fill-rule="evenodd" clip-rule="evenodd" d="M24.7174 57.1945C27.4015 56.7126 29.8038 55.7483 31.6571 54.4087C32.122 54.0728 33.0429 53.4115 33.7035 52.9391C36.9205 50.6389 37.6345 52.4192 38.1948 50.1246C38.5215 48.7868 38.697 48.4719 39.4421 47.8857C41.1427 46.548 42.1131 45.303 42.5491 43.8998C42.6322 43.6327 42.751 43.3149 42.8132 43.1935C42.8755 43.0721 42.9966 42.6549 43.0823 42.2664C43.2458 41.5249 43.694 39.7507 43.9075 38.9995C44.0456 38.514 44.0317 37.7883 43.8479 35.9041C43.7653 35.0558 43.7602 34.5686 43.8286 34.0602C43.9066 33.4814 43.8937 33.2024 43.749 32.3434C43.654 31.7793 43.4944 31.0718 43.3943 30.7712C43.1604 30.0684 42.7789 28.1717 42.7774 27.7049C42.7738 26.4504 41.9107 25.2585 40.5308 24.6022C40.1794 24.4351 39.841 24.2984 39.7786 24.2984C39.5691 24.2984 38.5559 23.923 38.1743 23.704C37.7502 23.4606 37.6745 23.1914 37.9963 23.0716C38.1065 23.0306 38.5068 22.9687 38.886 22.9339C39.2652 22.8991 39.5756 22.8494 39.5756 22.8233C39.5756 22.7209 39.0593 21.9556 38.556 21.3121C37.4366 19.8806 34.6378 17.4971 33.1868 16.7397C32.0033 16.1218 30.3205 15.5309 28.7688 15.1882C28.3266 15.0906 27.7246 14.9579 27.431 14.8935C26.8433 14.7645 24.2216 14.5522 24.1042 14.6242C24.0638 14.649 23.4945 14.6731 22.8393 14.6777C21.8376 14.6847 21.5488 14.6546 21.0251 14.4893C19.2617 13.9324 15.546 14.608 12.7972 15.9855C11.793 16.4888 10.476 17.4036 10.1556 17.8205C10.0031 18.0189 9.8528 18.1177 9.70351 18.1177C9.34593 18.1177 8.91869 18.4379 8.24767 19.2087C7.90336 19.6042 7.24889 20.2059 6.79327 20.5458C4.36499 22.3577 3.94932 22.7554 2.96512 24.2085C2.6491 24.6751 2.1932 25.4722 1.95209 25.9799C1.4616 27.0126 0.873234 28.6231 0.873234 28.9332C0.873234 29.0806 0.996993 29.215 1.32503 29.4239C2.02825 29.8717 2.04943 29.9302 1.97692 31.2258C1.91553 32.3219 1.90876 32.3495 1.60778 32.7407C1.23178 33.2295 0.79218 34.1597 0.44208 35.2076C-0.119504 36.8885 -0.141837 37.6813 0.351062 38.4436C0.78782 39.119 1.04006 39.9441 1.14193 41.0302C1.24166 42.0933 1.35261 42.8009 1.5366 43.5466C1.60244 43.8137 1.72655 44.3302 1.81232 44.6945C2.03653 45.6467 2.38298 46.5442 3.04484 47.887C4.18544 50.2011 5.23369 52.0573 5.86378 52.8783C6.92067 54.2556 8.846 53.2797 10.3773 54.1515C11.7428 54.9289 16.51 56.7786 17.9859 57.1038C18.8824 57.3012 23.7568 57.367 24.7174 57.1945ZM16.5493 49.1001C16.3196 49.0465 15.7268 48.8101 15.232 48.5747C14.024 48 13.6527 47.5953 13.193 46.3523C12.6169 44.7944 11.8421 43.6018 10.652 42.4414C10.3139 42.1117 10.0372 41.7937 10.0372 41.7347C10.0372 41.6758 10.2006 41.5203 10.4003 41.3892L10.7634 41.1507L10.3114 40.6763C10.0627 40.4154 9.85929 40.1627 9.85929 40.1147C9.85929 40.0061 10.0847 39.7782 10.3111 39.658C10.4557 39.5811 10.4821 39.4681 10.4821 38.9255C10.4821 38.3543 10.4433 38.2067 10.1289 37.5821C9.93456 37.1961 9.61675 36.6289 9.42262 36.3216C8.7242 35.216 8.80756 34.2051 9.81 31.6268C10.4732 29.9212 11.4583 28.3847 12.5887 27.2929C13.5005 26.4123 14.3951 25.7941 15.8017 25.0723C17.1384 24.3864 17.8204 23.9657 18.6293 23.3278C18.9993 23.036 19.3907 22.7974 19.4993 22.7974C19.6079 22.7974 19.9156 22.8736 20.183 22.9668C21.0121 23.2558 22.1702 23.3667 24.0974 23.3416L25.2123 23.3271L25.313 23.0622C25.4079 22.8126 25.4416 22.7974 25.8979 22.7974C26.3679 22.7974 26.3846 22.8058 26.4647 23.0843L26.5474 23.3713L27.5675 23.4211C28.1286 23.4485 28.7012 23.5183 28.8401 23.5763C29.2468 23.7462 30.1321 24.4592 30.9454 25.2718C31.3613 25.6874 31.8418 26.1222 32.013 26.2379C32.4913 26.5613 33.3537 27.3794 33.7358 27.8724C34.3832 28.7077 35.0238 30.2338 35.1634 31.2737C35.2742 32.0984 35.2318 33.978 35.0809 34.9379C34.997 35.4721 34.8973 36.1475 34.8594 36.4389C34.7624 37.1848 34.5323 38.4926 34.3158 39.5292C33.9696 41.1868 33.5442 42.0077 31.9868 44.0242C31.1805 45.0682 31.0836 45.4315 31.3452 46.4283C31.4633 46.8784 31.4632 46.9571 31.3441 47.1375C31.2703 47.2492 31.1205 47.3588 31.011 47.381C30.6264 47.4593 29.2956 47.6951 28.9435 47.7473C28.6885 47.7851 28.449 47.7457 28.0983 47.6082C26.4772 46.9729 26.0215 46.8791 25.0979 46.9905C24.0159 47.1211 23.2412 47.4939 22.5376 48.2229C22.244 48.5271 21.875 48.8311 21.7175 48.8984C21.5237 48.9814 21.035 49.0239 20.205 49.0303C19.5306 49.0354 18.6185 49.0689 18.1781 49.1045C17.7377 49.1403 17.285 49.1758 17.1721 49.1836C17.0592 49.1912 16.7789 49.1537 16.5493 49.1001Z" fill="white"/>
  <path d="M25.1066 7.39057C26.9555 7.39589 28.0936 5.6887 30.3011 5.47169C31.6832 5.33408 32.3851 5.55267 33.3156 5.57206C33.8708 5.58348 34.5112 5.52353 35.3925 5.24899C36.3404 4.94848 37.3814 4.72607 37.8289 4.50824C37.8138 4.52393 37.7575 4.55989 37.6655 4.66384C37.5733 4.76179 37.4742 4.95488 37.4591 5.02528C37.3785 5.25157 37.4103 5.55382 37.4692 5.68172C37.526 5.81933 37.5683 5.84506 37.5748 5.84541C37.7501 6.03077 37.6912 5.9433 37.6663 5.92869C37.6302 5.89801 37.5736 5.85721 37.5143 5.8179C37.394 5.73819 37.2567 5.65911 37.1251 5.59153C36.8588 5.45501 36.6037 5.35749 36.3808 5.31559C35.6939 5.18868 35.5441 4.79619 35.1759 4.39376C34.9805 4.15935 34.6762 3.92236 34.096 3.79374C33.1834 3.59483 32.4939 3.38982 31.816 3.096C31.3865 2.90969 31.0035 2.7085 30.5299 2.50658C30.1666 2.34782 29.5142 2.19111 28.7181 2.08637C26.9034 1.84508 24.4682 1.7915 23.3833 2.06463C23.3055 2.08431 23.2253 2.10144 23.1479 2.11619L23.1636 2.11594C22.2102 2.3204 21.2852 2.13298 20.5197 2.20634L20.5333 2.2017C20.0194 2.26331 19.5388 2.319 19.1658 2.40229C18.8353 2.47647 18.5648 2.50988 18.3505 2.51871C18.2596 2.52246 18.1996 2.47894 18.1767 2.42153C18.1767 2.42149 18.1767 2.42145 18.1767 2.42142C18.1484 2.34986 18.1777 2.25679 18.2772 2.20707C18.7337 1.97996 19.3769 1.60452 20.1328 1.07206C20.1354 1.07132 20.1429 1.06843 20.1454 1.06775C20.1952 1.03554 20.2457 1.00304 20.2991 0.970035C21.6222 0.255962 22.1306 0.529854 23.1231 0.519884C23.126 0.519987 23.1348 0.519492 23.1377 0.519651C23.5628 0.536284 24.0845 0.530899 24.8053 0.454294C26.3164 0.296468 27.4457 0.0368689 28.8145 0.00158811C29.6132 -0.0106325 30.5651 0.0310295 31.7002 0.432925C32.0066 0.542887 32.2769 0.637523 32.5266 0.714084C33.9434 1.16388 34.9301 0.93686 36.5363 1.55706C37.24 1.84597 38.008 2.23643 39.051 3.11878C39.1586 3.21162 39.2675 3.30533 39.3886 3.41339C39.5201 3.53889 39.6199 3.59485 39.9048 3.94277C40.1946 4.32923 40.5854 5.21291 40.2462 6.0322C40.1708 6.23842 39.9924 6.53259 39.8104 6.70722C39.6284 6.88866 39.4661 6.99048 39.3323 7.06814C36.9896 8.12898 36.3938 8.79127 34.1424 9.63788C33.7921 9.76119 33.4038 9.87975 32.9673 9.98997C29.1057 10.9689 24.0317 11.0453 21.6547 11.4801C21.3353 11.5398 20.99 11.6043 20.6396 11.6681C18.6237 11.987 16.2753 12.5919 13.1758 12.1883C12.8504 12.1349 12.5205 12.0755 12.1866 12.0075C10.6225 11.6805 8.70948 11.4006 6.79789 10.4363C6.16337 10.1192 5.52335 9.79852 4.87668 9.45213C4.55165 9.27758 4.22875 9.09923 3.89214 8.89821C3.72247 8.79648 3.55438 8.6928 3.36284 8.56385C3.26811 8.49969 3.16771 8.43002 3.0457 8.33625C2.98474 8.2891 2.91592 8.23448 2.83124 8.15937C2.73775 8.07073 2.64779 8.00829 2.43767 7.72956C2.29177 7.52075 2.07984 7.19021 2.00692 6.6489C1.92625 6.10477 2.12055 5.51259 2.30734 5.21993C2.30262 5.23063 2.37214 5.11112 2.43107 5.02707C2.49071 4.94015 2.55895 4.85257 2.61646 4.78532C2.73787 4.64314 2.8446 4.54071 2.94418 4.45134C3.14061 4.27695 3.31116 4.15478 3.4714 4.04699C3.78952 3.83544 4.08052 3.67857 4.36692 3.53718C5.37055 3.04881 6.41767 2.64622 7.5079 2.24652C8.53433 1.87535 9.55448 1.53514 10.6999 1.29757C12.6772 0.892995 14.322 1.18592 15.5036 1.27356C15.7313 1.2977 15.9508 1.32133 16.144 1.34428C18.5818 1.63126 19.172 1.69896 21.5138 1.50841C22.3894 1.43733 23.4851 1.45356 24.5698 1.58055C25.1546 1.64845 25.7317 1.74798 26.279 1.88274C27.0651 2.07737 26.8891 2.35051 26.0964 2.48242C25.5341 2.57599 25.0216 2.59455 24.5716 2.62789C24.0998 2.66327 23.694 2.71535 23.3875 2.8915C22.1955 3.57531 21.6893 3.83763 20.1816 3.44521C18.6743 3.0531 17.9669 3.95751 17.0909 3.85823C16.6015 3.80305 16.3863 3.6125 15.5226 3.53291C14.8806 3.49091 13.6223 3.40809 12.0725 3.85688C11.8813 3.92023 11.6898 3.99336 11.4798 4.07425C10.5855 4.44568 9.68817 4.93219 8.96 5.34328C8.03078 5.86799 7.27561 6.31477 6.68597 6.70124C6.39323 6.89337 6.14116 7.07174 5.95713 7.2219C5.78539 7.34749 5.63211 7.56754 5.84743 7.3252C5.86931 7.29846 5.91277 7.22595 5.86901 7.3049C5.99891 7.10435 6.17442 6.62718 6.11511 6.15736C6.06087 5.69041 5.88307 5.42538 5.79052 5.29266C5.54781 4.98528 5.55421 5.04006 5.54085 5.01922C5.53775 5.01762 5.56412 5.03886 5.59789 5.06368C5.66774 5.11532 5.77295 5.18803 5.88689 5.26465C6.11737 5.41956 6.39541 5.59974 6.68929 5.78796C7.28139 6.16652 7.95162 6.58638 8.64523 7.00197C9.38639 7.46295 10.2972 7.77704 11.2118 7.90878C11.8531 8.00409 12.7006 8.1173 13.6706 8.22387C15.4856 8.4276 18.3028 8.00589 20.0494 7.65282C20.4082 7.57749 20.737 7.49887 21.0046 7.42206C23.1565 6.79993 23.2601 7.37883 25.1066 7.39057Z" fill="white"/>
</svg>
