<svg width="44" height="52" viewBox="0 0 44 52" fill="none" xmlns="http://www.w3.org/2000/svg">
  <path fill-rule="evenodd" clip-rule="evenodd" d="M7.18262 2.99814C7.18253 2.10137 7.64937 0.654951 8.08934 0.188862C8.44954 -0.192613 8.523 -0.107643 9.22436 1.50172C9.89397 3.03815 11.0407 4.46527 12.586 5.68537C13.4848 6.39503 14.318 6.84493 15.4329 7.22268C16.6084 7.62089 17.7787 7.70276 19.0905 7.47847C20.3658 7.26048 21.0129 7.48493 21.5683 8.33799C21.7004 8.54094 21.8489 8.73628 21.8983 8.77203C21.9477 8.80779 22.5314 8.83762 23.1955 8.83841C23.9039 8.83918 24.219 8.85623 24.454 8.72724C24.68 8.60318 24.8318 8.34405 25.188 7.80543C25.8303 6.83413 26.2733 6.58683 27.5372 6.49381C28.9965 6.38645 31.1229 5.82875 32.261 5.25486C33.1521 4.80541 35.8509 2.50258 36.9776 1.22999C37.3303 0.831703 37.6754 0.484217 37.7444 0.457841C37.9189 0.391194 38.1482 0.620344 38.4507 1.16352C38.6969 1.60563 38.7079 1.6736 38.6989 2.68836C38.6817 4.63105 38.0055 7.33571 37.0815 9.15732C36.805 9.70244 35.9351 10.9263 35.4015 11.5207C35.2359 11.7052 33.9726 12.9559 34 13L22.9219 15L11 12C11.0259 11.933 10.3508 11.3303 10.1839 11.1218C9.36346 10.0967 8.65792 8.64316 8.02326 6.66994C7.46775 4.94304 7.1828 3.69816 7.18262 2.99814Z" fill="white"/>
  <path fill-rule="evenodd" clip-rule="evenodd" d="M24.7174 51.9055C27.4015 51.4236 29.8038 50.4592 31.6572 49.1197C32.122 48.7837 33.0429 48.1224 33.7035 47.65C36.9205 45.3499 37.6345 47.1301 38.1948 44.8355C38.5215 43.4977 38.697 43.1828 39.4421 42.5966C41.1427 41.2589 42.1131 40.0139 42.5491 38.6108C42.6322 38.3437 42.751 38.0258 42.8132 37.9044C42.8755 37.783 42.9966 37.3658 43.0823 36.9773C43.2458 36.2358 43.694 34.4616 43.9076 33.7104C44.0456 33.2249 44.0317 32.4993 43.8479 30.615C43.7653 29.7667 43.7602 29.2795 43.8286 28.7711C43.9066 28.1923 43.8937 27.9133 43.749 27.0544C43.654 26.4903 43.4944 25.7828 43.3943 25.4821C43.1604 24.7794 42.7789 22.8826 42.7774 22.4158C42.7738 21.1613 41.9107 19.9694 40.5308 19.3131C40.1794 19.146 39.841 19.0093 39.7786 19.0093C39.5691 19.0093 38.5559 18.634 38.1743 18.4149C37.7502 18.1716 37.6745 17.9024 37.9963 17.7825C38.1065 17.7416 38.5068 17.6796 38.886 17.6448C39.2652 17.61 39.5756 17.5603 39.5756 17.5343C39.5756 17.4318 39.0593 16.6666 38.556 16.023C37.4366 14.5916 34.6378 12.2081 33.1868 11.4507C32.0033 10.8328 30.3205 10.2418 28.7688 9.89914C28.3266 9.80149 27.7246 9.66887 27.431 9.60442C26.8433 9.47542 24.2216 9.26315 24.1042 9.33511C24.0638 9.35993 23.4945 9.38403 22.8393 9.38862C21.8376 9.3956 21.5488 9.36558 21.0251 9.2002C19.2617 8.64333 15.546 9.31896 12.7972 10.6964C11.793 11.1997 10.476 12.1145 10.1556 12.5315C10.0031 12.7299 9.8528 12.8287 9.70351 12.8287C9.34594 12.8287 8.91869 13.1488 8.24768 13.9197C7.90336 14.3151 7.24889 14.9169 6.79327 15.2568C4.36499 17.0686 3.94932 17.4664 2.96513 18.9194C2.6491 19.3861 2.19321 20.1832 1.9521 20.6909C1.4616 21.7235 0.873236 23.3341 0.873236 23.6442C0.873236 23.7915 0.996998 23.9259 1.32503 24.1348C2.02826 24.5827 2.04943 24.6411 1.97692 25.9367C1.91553 27.0328 1.90877 27.0605 1.60778 27.4516C1.23179 27.9404 0.792184 28.8706 0.442083 29.9186C-0.119501 31.5994 -0.141834 32.3922 0.351064 33.1546C0.787822 33.8299 1.04006 34.6551 1.14193 35.7412C1.24167 36.8042 1.35261 37.5118 1.5366 38.2576C1.60244 38.5247 1.72655 39.0412 1.81232 39.4054C2.03653 40.3577 2.38298 41.2552 3.04484 42.598C4.18544 44.9121 5.2337 46.7682 5.86379 47.5893C6.92067 48.9665 8.846 47.9907 10.3773 48.8625C11.7428 49.6398 16.51 51.4895 17.9859 51.8147C18.8825 52.0121 23.7568 52.0779 24.7174 51.9055ZM16.5493 43.8111C16.3196 43.7575 15.7268 43.521 15.232 43.2856C14.024 42.711 13.6527 42.3062 13.193 41.0632C12.6169 39.5054 11.8421 38.3128 10.652 37.1524C10.3139 36.8226 10.0372 36.5047 10.0372 36.4457C10.0372 36.3868 10.2006 36.2312 10.4003 36.1001L10.7634 35.8616L10.3114 35.3873C10.0627 35.1264 9.85929 34.8737 9.85929 34.8256C9.85929 34.717 10.0847 34.4892 10.3111 34.3689C10.4557 34.2921 10.4821 34.1791 10.4821 33.6364C10.4821 33.0652 10.4433 32.9176 10.1289 32.293C9.93457 31.9071 9.61676 31.3399 9.42262 31.0326C8.7242 29.927 8.80757 28.9161 9.81 26.3378C10.4732 24.6321 11.4583 23.0956 12.5887 22.0038C13.5005 21.1233 14.3951 20.505 15.8017 19.7832C17.1384 19.0973 17.8204 18.6766 18.6293 18.0387C18.9993 17.747 19.3907 17.5083 19.4993 17.5083C19.6079 17.5083 19.9156 17.5846 20.183 17.6777C21.0121 17.9667 22.1702 18.0776 24.0974 18.0526L25.2123 18.0381L25.313 17.7732C25.4079 17.5236 25.4417 17.5083 25.8979 17.5083C26.3679 17.5083 26.3846 17.5167 26.4647 17.7953L26.5474 18.0822L27.5675 18.132C28.1286 18.1594 28.7012 18.2292 28.8401 18.2872C29.2468 18.4571 30.1321 19.1702 30.9454 19.9828C31.3613 20.3984 31.8418 20.8331 32.013 20.9489C32.4913 21.2722 33.3537 22.0904 33.7358 22.5833C34.3832 23.4187 35.0238 24.9448 35.1634 25.9846C35.2742 26.8094 35.2318 28.6889 35.0809 29.6488C34.997 30.183 34.8973 30.8585 34.8594 31.1498C34.7624 31.8958 34.5323 33.2036 34.3158 34.2402C33.9696 35.8977 33.5442 36.7186 31.9868 38.7352C31.1805 39.7792 31.0836 40.1424 31.3452 41.1393C31.4633 41.5893 31.4632 41.668 31.3441 41.8484C31.2703 41.9601 31.1205 42.0697 31.011 42.0919C30.6264 42.1703 29.2956 42.406 28.9435 42.4582C28.6885 42.496 28.449 42.4566 28.0983 42.3191C26.4772 41.6839 26.0215 41.59 25.0979 41.7014C24.0159 41.832 23.2412 42.2049 22.5376 42.9338C22.244 43.238 21.875 43.542 21.7175 43.6094C21.5237 43.6923 21.035 43.7348 20.205 43.7412C19.5306 43.7463 18.6185 43.7798 18.1781 43.8155C17.7377 43.8512 17.285 43.8867 17.1721 43.8945C17.0592 43.9022 16.7789 43.8646 16.5493 43.8111Z" fill="white"/>
</svg>
