<svg width="44" height="43" viewBox="0 0 44 43" fill="none" xmlns="http://www.w3.org/2000/svg">
  <path fill-rule="evenodd" clip-rule="evenodd" d="M24.7174 42.9006C27.4015 42.4187 29.8038 41.4543 31.6571 40.1148C32.122 39.7788 33.0429 39.1175 33.7035 38.6451C36.9205 36.345 37.6345 38.1253 38.1948 35.8307C38.5215 34.4928 38.697 34.178 39.4421 33.5918C41.1427 32.254 42.1131 31.0091 42.5491 29.6059C42.6322 29.3388 42.751 29.0209 42.8132 28.8995C42.8755 28.7781 42.9966 28.3609 43.0823 27.9724C43.2458 27.2309 43.694 25.4567 43.9075 24.7055C44.0456 24.2201 44.0317 23.4944 43.8479 21.6102C43.7653 20.7618 43.7602 20.2746 43.8286 19.7662C43.9066 19.1874 43.8937 18.9084 43.749 18.0495C43.654 17.4854 43.4944 16.7779 43.3943 16.4772C43.1604 15.7745 42.7789 13.8777 42.7774 13.4109C42.7738 12.1564 41.9107 10.9645 40.5308 10.3083C40.1794 10.1411 39.841 10.0044 39.7786 10.0044C39.5691 10.0044 38.5559 9.62909 38.1743 9.41003C37.7502 9.16669 37.6745 8.89748 37.9963 8.77766C38.1065 8.73669 38.5068 8.67471 38.886 8.63992C39.2652 8.60514 39.5756 8.55542 39.5756 8.52938C39.5756 8.42696 39.0593 7.6617 38.556 7.01812C37.4366 5.58669 34.6378 3.20317 33.1868 2.44578C32.0033 1.82789 30.3205 1.23693 28.7688 0.89426C28.3266 0.796606 27.7246 0.663986 27.431 0.599531C26.8433 0.470532 24.2216 0.25827 24.1042 0.33023C24.0638 0.355041 23.4945 0.379147 22.8393 0.383738C21.8376 0.390713 21.5488 0.360696 21.0251 0.195319C19.2617 -0.361556 15.546 0.314077 12.7972 1.69156C11.793 2.19484 10.476 3.10966 10.1556 3.52659C10.0031 3.72499 9.8528 3.82379 9.70351 3.82379C9.34593 3.82379 8.91869 4.14395 8.24767 4.91476C7.90336 5.31024 7.24889 5.91196 6.79327 6.2519C4.36499 8.06371 3.94932 8.46147 2.96512 9.91454C2.6491 10.3812 2.1932 11.1783 1.95209 11.686C1.4616 12.7186 0.873234 14.3292 0.873234 14.6393C0.873234 14.7866 0.996993 14.921 1.32503 15.1299C2.02825 15.5778 2.04943 15.6362 1.97692 16.9319C1.91553 18.028 1.90876 18.0556 1.60778 18.4467C1.23178 18.9355 0.79218 19.8657 0.44208 20.9137C-0.119504 22.5946 -0.141837 23.3874 0.351062 24.1497C0.78782 24.8251 1.04006 25.6502 1.14193 26.7363C1.24166 27.7994 1.35261 28.5069 1.5366 29.2527C1.60244 29.5198 1.72655 30.0363 1.81232 30.4005C2.03653 31.3528 2.38298 32.2503 3.04484 33.5931C4.18544 35.9072 5.23369 37.7633 5.86378 38.5844C6.92067 39.9616 8.846 38.9858 10.3773 39.8576C11.7428 40.6349 16.51 42.4846 17.9859 42.8098C18.8824 43.0073 23.7568 43.073 24.7174 42.9006ZM16.5493 34.8062C16.3196 34.7526 15.7268 34.5161 15.232 34.2807C14.024 33.7061 13.6527 33.3014 13.193 32.0583C12.6169 30.5005 11.8421 29.3079 10.652 28.1475C10.3139 27.8177 10.0372 27.4998 10.0372 27.4408C10.0372 27.3819 10.2006 27.2263 10.4003 27.0952L10.7634 26.8567L10.3114 26.3824C10.0627 26.1215 9.85929 25.8688 9.85929 25.8208C9.85929 25.7122 10.0847 25.4843 10.3111 25.364C10.4557 25.2872 10.4821 25.1742 10.4821 24.6315C10.4821 24.0603 10.4433 23.9127 10.1289 23.2881C9.93456 22.9022 9.61675 22.335 9.42262 22.0277C8.7242 20.9221 8.80756 19.9112 9.81 17.3329C10.4732 15.6272 11.4583 14.0907 12.5887 12.9989C13.5005 12.1184 14.3951 11.5001 15.8017 10.7783C17.1384 10.0925 17.8204 9.67173 18.6293 9.03381C18.9993 8.74208 19.3907 8.50342 19.4993 8.50342C19.6079 8.50342 19.9156 8.5797 20.183 8.67286C21.0121 8.96184 22.1702 9.07274 24.0974 9.04767L25.2123 9.03319L25.313 8.7683C25.4079 8.51869 25.4416 8.50342 25.8979 8.50342C26.3679 8.50342 26.3846 8.51181 26.4647 8.79038L26.5474 9.07733L27.5675 9.12713C28.1286 9.15451 28.7012 9.22435 28.8401 9.28236C29.2468 9.45224 30.1321 10.1653 30.9454 10.9779C31.3613 11.3935 31.8418 11.8282 32.013 11.944C32.4913 12.2673 33.3537 13.0855 33.7358 13.5784C34.3832 14.4138 35.0238 15.9399 35.1634 16.9797C35.2742 17.8045 35.2318 19.684 35.0809 20.644C34.997 21.1781 34.8973 21.8536 34.8594 22.145C34.7624 22.8909 34.5323 24.1987 34.3158 25.2353C33.9696 26.8928 33.5442 27.7137 31.9868 29.7303C31.1805 30.7743 31.0836 31.1375 31.3452 32.1344C31.4633 32.5844 31.4632 32.6632 31.3441 32.8436C31.2703 32.9552 31.1205 33.0648 31.011 33.0871C30.6264 33.1654 29.2956 33.4011 28.9435 33.4533C28.6885 33.4911 28.449 33.4517 28.0983 33.3142C26.4772 32.679 26.0215 32.5851 25.0979 32.6965C24.0159 32.8271 23.2412 33.2 22.5376 33.929C22.244 34.2331 21.875 34.5371 21.7175 34.6045C21.5237 34.6874 21.035 34.73 20.205 34.7363C19.5306 34.7414 18.6185 34.7749 18.1781 34.8106C17.7377 34.8463 17.285 34.8818 17.1721 34.8896C17.0592 34.8973 16.7789 34.8598 16.5493 34.8062Z" fill="white"/>
</svg>
