<svg width="47" height="47" viewBox="0 0 47 47" fill="none" xmlns="http://www.w3.org/2000/svg">
<rect width="47" height="47" rx="16" fill="white"/>
<path d="M30.3113 15.0422C30.3755 15.0697 30.4871 15.1307 30.5593 15.1778C30.6664 15.2477 32.2892 16.8153 32.7654 17.3088C32.8345 17.3804 33.2531 17.7971 33.6957 18.2348C35.7844 20.3005 37.6247 22.1335 37.6714 22.1948C37.6998 22.232 37.7501 22.2971 37.7832 22.3395C37.9788 22.5892 38.0418 22.8377 37.9732 23.0889C37.9271 23.258 37.7046 23.4725 37.454 23.5896C37.1969 23.7096 37.1693 23.7204 36.9789 23.7753C36.8906 23.8008 36.7593 23.8394 36.6871 23.8612C36.6149 23.8829 36.4573 23.9289 36.3369 23.9634C35.8502 24.1029 35.5295 24.2022 35.4387 24.2415C35.386 24.2643 35.3199 24.283 35.292 24.283C35.264 24.283 35.143 24.3147 35.023 24.3534C34.383 24.5602 34.1085 24.5854 33.8262 24.4633C33.6314 24.379 28.4081 19.2029 28.2955 18.9825C28.16 18.7173 28.1703 18.4323 28.3284 18.0757C28.3496 18.0279 28.4001 17.8902 28.4408 17.7697C28.4815 17.6492 28.5348 17.5125 28.5594 17.4659C28.5838 17.4193 28.604 17.3647 28.6041 17.3445C28.6042 17.3244 28.6164 17.2854 28.6313 17.2577C28.6461 17.2301 28.7204 17.0447 28.7964 16.8458C28.8723 16.6468 28.9437 16.471 28.9551 16.4551C28.9665 16.4392 28.9826 16.3936 28.991 16.3538C29.0266 16.1857 29.2601 15.6358 29.3709 15.4594C29.5094 15.239 29.6259 15.1222 29.7746 15.0545C29.9231 14.987 30.169 14.9814 30.3113 15.0422Z" fill="#242426"/>
<path d="M15.3783 16.1485C15.4621 16.1789 15.5762 16.2317 15.6321 16.2659C15.7566 16.3423 21.2889 21.8543 21.3868 21.9995C21.4253 22.0567 21.4859 22.1739 21.5215 22.2599L21.5861 22.4164L21.5942 25.4782C21.6018 28.3316 21.5989 28.5473 21.5518 28.647C21.4933 28.7709 21.3907 28.8774 21.2606 28.9493C21.1404 29.0158 20.8681 29.017 20.7611 28.9515C20.665 28.8927 20.3755 28.6202 20.3755 28.5886C20.3755 28.5761 20.3525 28.5426 20.3245 28.5142C20.2424 28.4312 19.9886 28.134 19.9407 28.065C19.9165 28.0301 19.8821 27.9886 19.8643 27.9727C19.8464 27.9567 19.7736 27.8723 19.7024 27.785C19.4993 27.5358 19.4648 27.4947 19.325 27.3355C19.2528 27.2532 19.0887 27.0585 18.9603 26.9027C18.8319 26.747 18.7136 26.605 18.6974 26.5871C18.6811 26.5693 18.6023 26.4766 18.5223 26.3812C18.4422 26.2859 18.3636 26.1934 18.3475 26.1757C18.3315 26.1581 18.2707 26.0863 18.2124 26.0163C17.8079 25.5305 17.5828 25.262 17.4746 25.1367C17.406 25.0571 17.2866 24.9138 17.2093 24.8183C17.0818 24.6607 16.8899 24.4391 16.7626 24.3026C16.6584 24.1909 16.4642 24.0898 16.2542 24.0379C16.0426 23.9857 16.0283 23.9856 15.8202 24.0358C15.4558 24.1236 15.2099 24.3185 15.0464 24.6489L14.9626 24.8183L14.958 26.4213C14.9529 28.1641 14.9517 28.1781 14.7871 28.4365C14.6377 28.671 14.4414 28.8229 14.131 28.944C13.9972 28.9962 11.1982 29.0202 10.967 28.9711C10.6191 28.8973 10.2831 28.6544 10.1376 28.3716L10.134 28.3645C10.1216 28.3404 10.1103 28.3185 10.1 28.2961C9.99587 28.0692 9.99637 27.7951 10.0019 24.7414L10.0021 24.6539L10.0027 24.3046C10.0076 21.5326 10.0081 21.2742 10.1159 21.072C10.127 21.0512 10.1392 21.031 10.1527 21.0087C10.158 21 10.1635 20.9909 10.1692 20.9813C10.2109 20.9111 10.2692 20.8277 10.2987 20.7959C10.3282 20.764 10.39 20.6924 10.4362 20.6367C10.4823 20.581 10.5939 20.4562 10.6842 20.3594C10.7744 20.2626 10.8805 20.1454 10.92 20.099C11.0074 19.9961 11.4234 19.5283 11.4454 19.5081C11.454 19.5002 11.5057 19.4416 11.5603 19.3779C11.6148 19.3142 11.7264 19.1893 11.8082 19.1003C11.8901 19.0114 12.0228 18.8623 12.103 18.7691C12.1832 18.6759 12.3221 18.5208 12.4114 18.4245C12.5473 18.278 12.8515 17.9372 13.3282 17.3973C13.3765 17.3426 13.4818 17.2246 13.562 17.1351C13.8495 16.8147 13.899 16.7588 14.0712 16.5603C14.237 16.3693 14.4559 16.2133 14.6708 16.133C14.8189 16.0776 15.2062 16.0862 15.3783 16.1485Z" fill="#242426"/>
<path d="M28.4828 21.0377C30.6335 23.1908 31.7191 24.2762 33.8308 26.3846C34.9992 27.5513 35.0321 27.5904 35.1131 27.9093C35.1417 28.0221 35.1394 28.0777 35.0995 28.2351C35.0084 28.5948 34.7962 28.8303 34.456 28.9493C34.3228 28.9959 34.1287 29 32.0447 29C29.9475 29 29.6687 29.0046 29.453 28.8914C29.4104 28.8691 29.3703 28.8422 29.3192 28.8097C29.1616 28.7097 22.9609 22.5719 22.8457 22.402C22.6809 22.1587 22.5934 21.8366 22.5925 21.4691C22.5922 21.3217 22.579 21.0382 22.5633 20.8393C22.5475 20.6403 22.5215 20.1911 22.5055 19.8409C22.4894 19.4907 22.4554 18.8071 22.4299 18.3216C22.3564 16.9219 22.3454 16.7739 22.3963 16.6509C22.4052 16.6293 22.416 16.6085 22.4287 16.5818C22.5189 16.3928 22.6546 16.2567 22.8452 16.1641C23.0334 16.0727 23.3168 16.0681 23.5172 16.1533C23.5221 16.1554 23.5268 16.1573 23.5315 16.1594C23.6698 16.2196 23.784 16.334 28.3738 20.9287L28.4828 21.0377Z" fill="#242426"/>
</svg>
