<svg width="47" height="47" viewBox="0 0 47 47" fill="none" xmlns="http://www.w3.org/2000/svg">
<g clip-path="url(#clip0_445_527)">
<path d="M31 0H16C7.16344 0 0 7.16344 0 16V31C0 39.8366 7.16344 47 16 47H31C39.8366 47 47 39.8366 47 31V16C47 7.16344 39.8366 0 31 0Z" fill="#242426"/>
<path fill-rule="evenodd" clip-rule="evenodd" d="M24.9205 34.9468C26.3235 34.6891 27.5793 34.1732 28.5481 33.4568C28.7911 33.2771 29.2724 32.9233 29.6177 32.6707C31.2993 31.4403 31.6726 32.3926 31.9655 31.1652C32.1362 30.4496 32.228 30.2812 32.6175 29.9677C33.5064 29.2521 34.0137 28.5862 34.2416 27.8357C34.285 27.6928 34.3471 27.5228 34.3796 27.4579C34.4122 27.3929 34.4755 27.1698 34.5203 26.962C34.6058 26.5654 34.8401 25.6164 34.9517 25.2146C35.0239 24.9549 35.0166 24.5668 34.9205 23.5589C34.8773 23.1052 34.8747 22.8446 34.9104 22.5726C34.9512 22.2631 34.9444 22.1138 34.8688 21.6544C34.8191 21.3526 34.7357 20.9742 34.6834 20.8134C34.5611 20.4375 34.3617 19.423 34.3609 19.1733C34.359 18.5023 33.9079 17.8648 33.1866 17.5137C33.0029 17.4243 32.826 17.3512 32.7934 17.3512C32.6838 17.3512 32.1542 17.1504 31.9547 17.0333C31.7331 16.9031 31.6935 16.7591 31.8617 16.695C31.9193 16.6731 32.1286 16.64 32.3268 16.6214C32.525 16.6027 32.6872 16.5762 32.6872 16.5622C32.6872 16.5074 32.4173 16.0981 32.1543 15.7539C31.5691 14.9882 30.1061 13.7133 29.3477 13.3082C28.729 12.9777 27.8493 12.6616 27.0382 12.4783C26.8071 12.4261 26.4924 12.3552 26.339 12.3207C26.0317 12.2517 24.6613 12.1381 24.5999 12.1766C24.5788 12.1899 24.2812 12.2028 23.9387 12.2053C23.4151 12.209 23.2642 12.1929 22.9904 12.1045C22.0686 11.8066 20.1263 12.168 18.6894 12.9048C18.1645 13.174 17.4761 13.6633 17.3086 13.8863C17.2289 13.9924 17.1503 14.0453 17.0723 14.0453C16.8854 14.0453 16.662 14.2165 16.3113 14.6288C16.1313 14.8404 15.7892 15.1622 15.551 15.344C14.2817 16.3131 14.0644 16.5259 13.5499 17.3031C13.3848 17.5527 13.1464 17.9791 13.0204 18.2507C12.764 18.803 12.4565 19.6645 12.4565 19.8303C12.4565 19.9091 12.5212 19.981 12.6926 20.0928C13.0602 20.3323 13.0713 20.3636 13.0334 21.0566C13.0013 21.6429 12.9978 21.6576 12.8404 21.8669C12.6439 22.1283 12.4141 22.6258 12.2311 23.1864C11.9375 24.0855 11.9259 24.5095 12.1835 24.9173C12.4118 25.2785 12.5437 25.7199 12.5969 26.3008C12.6491 26.8694 12.707 27.2479 12.8032 27.6468C12.8376 27.7896 12.9025 28.0659 12.9473 28.2607C13.0645 28.7701 13.2456 29.2502 13.5916 29.9684C14.1878 31.2062 14.7358 32.199 15.0652 32.6382C15.6176 33.3748 16.624 32.8529 17.4245 33.3192C18.1383 33.735 20.6302 34.7243 21.4017 34.8983C21.8704 35.0039 24.4183 35.0391 24.9205 34.9468ZM20.6508 30.6173C20.5307 30.5886 20.2208 30.4621 19.9622 30.3362C19.3307 30.0288 19.1367 29.8124 18.8964 29.1475C18.5952 28.3142 18.1902 27.6763 17.5681 27.0556C17.3914 26.8792 17.2467 26.7092 17.2467 26.6776C17.2467 26.6461 17.3321 26.5629 17.4365 26.4928L17.6263 26.3652L17.39 26.1115C17.26 25.972 17.1537 25.8368 17.1537 25.8111C17.1537 25.753 17.2715 25.6311 17.3899 25.5668C17.4655 25.5257 17.4793 25.4653 17.4793 25.175C17.4793 24.8695 17.459 24.7905 17.2946 24.4564C17.1931 24.25 17.0269 23.9466 16.9255 23.7823C16.5604 23.1909 16.604 22.6502 17.128 21.2711C17.4746 20.3587 17.9896 19.5369 18.5805 18.9529C19.0571 18.4819 19.5247 18.1512 20.26 17.7652C20.9587 17.3983 21.3152 17.1733 21.7381 16.832C21.9314 16.676 22.1361 16.5483 22.1928 16.5483C22.2496 16.5483 22.4104 16.5891 22.5502 16.639C22.9836 16.7935 23.589 16.8529 24.5964 16.8395L25.1791 16.8317L25.2318 16.69C25.2814 16.5565 25.299 16.5483 25.5375 16.5483C25.7832 16.5483 25.7919 16.5528 25.8338 16.7018L25.877 16.8553L26.4103 16.882C26.7036 16.8966 27.0029 16.934 27.0755 16.965C27.2881 17.0558 27.7509 17.4373 28.176 17.8719C28.3934 18.0942 28.6446 18.3267 28.7341 18.3887C28.9841 18.5616 29.4349 18.9992 29.6346 19.2629C29.973 19.7097 30.3079 20.526 30.3809 21.0822C30.4388 21.5233 30.4166 22.5287 30.3378 23.0421C30.2939 23.3278 30.2418 23.6891 30.222 23.845C30.1713 24.244 30.051 24.9435 29.9378 25.4979C29.7568 26.3845 29.5345 26.8236 28.7204 27.9022C28.2989 28.4607 28.2482 28.655 28.385 29.1881C28.4467 29.4289 28.4467 29.471 28.3844 29.5675C28.3458 29.6272 28.2675 29.6858 28.2103 29.6977C28.0093 29.7396 27.3136 29.8657 27.1296 29.8936C26.9962 29.9138 26.8711 29.8928 26.6878 29.8193C25.8403 29.4794 25.6021 29.4292 25.1193 29.4888C24.5538 29.5587 24.1488 29.7581 23.781 30.148C23.6276 30.3107 23.4346 30.4734 23.3523 30.5094C23.251 30.5537 22.9956 30.5765 22.5617 30.5799C22.2092 30.5826 21.7324 30.6005 21.5022 30.6196C21.272 30.6387 21.0353 30.6577 20.9763 30.6619C20.9173 30.666 20.7708 30.6459 20.6508 30.6173Z" fill="white"/>
</g>
<defs>
<clipPath id="clip0_445_527">
<rect width="47" height="47" fill="white"/>
</clipPath>
</defs>
</svg>
